<svg width="40" height="40" viewBox="0 0 40 40" fill="none" xmlns="http://www.w3.org/2000/svg">
<g clip-path="url(#clip0_459_18881)">
<mask id="mask0_459_18881" style="mask-type:luminance" maskUnits="userSpaceOnUse" x="0" y="0" width="40" height="40">
<path d="M40 20C40 8.9543 31.0457 0 20 0C8.9543 0 0 8.9543 0 20C0 31.0457 8.9543 40 20 40C31.0457 40 40 31.0457 40 20Z" fill="white"/>
</mask>
<g mask="url(#mask0_459_18881)">
<path d="M40 20C40 8.9543 31.0457 0 20 0C8.9543 0 0 8.9543 0 20C0 31.0457 8.9543 40 20 40C31.0457 40 40 31.0457 40 20Z" fill="url(#paint0_linear_459_18881)"/>
<path d="M40 20C40 8.9543 31.0457 0 20 0C8.9543 0 0 8.9543 0 20C0 31.0457 8.9543 40 20 40C31.0457 40 40 31.0457 40 20Z" fill="url(#paint1_radial_459_18881)" fill-opacity="0.64"/>
<g filter="url(#filter0_d_459_18881)">
<path d="M23.6584 24.6707C24.5029 24.2484 25.4971 24.2484 26.3416 24.6707L47.2111 35.1055C47.9482 35.474 47.9482 36.5258 47.2111 36.8943L26.3416 47.3291C25.4971 47.7514 24.5029 47.7514 23.6584 47.3291L2.78887 36.8943C2.05182 36.5258 2.05183 35.474 2.78887 35.1055L23.6584 24.6707Z" fill="white" fill-opacity="0.16"/>
<path d="M23.6584 24.6707C24.5029 24.2484 25.4971 24.2484 26.3416 24.6707L47.2111 35.1055C47.9482 35.474 47.9482 36.5258 47.2111 36.8943L26.3416 47.3291C25.4971 47.7514 24.5029 47.7514 23.6584 47.3291L2.78887 36.8943C2.05182 36.5258 2.05183 35.474 2.78887 35.1055L23.6584 24.6707Z" fill="url(#paint2_linear_459_18881)" fill-opacity="0.32"/>
<path d="M26.118 25.1179L46.9875 35.5527C47.3561 35.7369 47.3561 36.2629 46.9875 36.4471L26.118 46.8819C25.4142 47.2338 24.5858 47.2338 23.882 46.8819L3.01247 36.4471C2.64395 36.2629 2.64395 35.7369 3.01247 35.5527L23.882 25.1179C24.5858 24.766 25.4142 24.766 26.118 25.1179Z" stroke="url(#paint3_linear_459_18881)" stroke-opacity="0.2"/>
</g>
<g filter="url(#filter1_d_459_18881)">
<path d="M29.6584 16.6707C30.5029 16.2484 31.4971 16.2484 32.3416 16.6707L53.2111 27.1055C53.9482 27.474 53.9482 28.5258 53.2111 28.8943L32.3416 39.3291C31.4971 39.7514 30.5029 39.7514 29.6584 39.3291L8.78887 28.8943C8.05182 28.5258 8.05183 27.474 8.78887 27.1055L29.6584 16.6707Z" fill="white" fill-opacity="0.16"/>
<path d="M29.6584 16.6707C30.5029 16.2484 31.4971 16.2484 32.3416 16.6707L53.2111 27.1055C53.9482 27.474 53.9482 28.5258 53.2111 28.8943L32.3416 39.3291C31.4971 39.7514 30.5029 39.7514 29.6584 39.3291L8.78887 28.8943C8.05182 28.5258 8.05183 27.474 8.78887 27.1055L29.6584 16.6707Z" fill="url(#paint4_linear_459_18881)" fill-opacity="0.32"/>
<path d="M32.118 17.1179L52.9875 27.5527C53.3561 27.7369 53.3561 28.2629 52.9875 28.4471L32.118 38.8819C31.4142 39.2338 30.5858 39.2338 29.882 38.8819L9.01247 28.4471C8.64395 28.2629 8.64395 27.7369 9.01247 27.5527L29.882 17.1179C30.5858 16.766 31.4142 16.766 32.118 17.1179Z" stroke="url(#paint5_linear_459_18881)" stroke-opacity="0.2"/>
</g>
<g filter="url(#filter2_d_459_18881)">
<path d="M35.6584 8.67072C36.5029 8.24843 37.4971 8.24843 38.3416 8.67072L59.2111 19.1055C59.9482 19.474 59.9482 20.5258 59.2111 20.8943L38.3416 31.3291C37.4971 31.7514 36.5029 31.7514 35.6584 31.3291L14.7889 20.8943C14.0518 20.5258 14.0518 19.474 14.7889 19.1055L35.6584 8.67072Z" fill="white" fill-opacity="0.16"/>
<path d="M35.6584 8.67072C36.5029 8.24843 37.4971 8.24843 38.3416 8.67072L59.2111 19.1055C59.9482 19.474 59.9482 20.5258 59.2111 20.8943L38.3416 31.3291C37.4971 31.7514 36.5029 31.7514 35.6584 31.3291L14.7889 20.8943C14.0518 20.5258 14.0518 19.474 14.7889 19.1055L35.6584 8.67072Z" fill="url(#paint6_linear_459_18881)" fill-opacity="0.32"/>
<path d="M38.118 9.11794L58.9875 19.5527C59.3561 19.7369 59.3561 20.2629 58.9875 20.4471L38.118 30.8819C37.4142 31.2338 36.5858 31.2338 35.882 30.8819L15.0125 20.4471C14.6439 20.2629 14.6439 19.7369 15.0125 19.5527L35.882 9.11794C36.5858 8.76603 37.4142 8.76603 38.118 9.11794Z" stroke="url(#paint7_linear_459_18881)" stroke-opacity="0.2"/>
</g>
<g filter="url(#filter3_d_459_18881)">
<path d="M41.6584 0.670722C42.5029 0.248431 43.4971 0.248431 44.3416 0.670722L65.2111 11.1055C65.9482 11.474 65.9482 12.5258 65.2111 12.8943L44.3416 23.3291C43.4971 23.7514 42.5029 23.7514 41.6584 23.3291L20.7889 12.8943C20.0518 12.5258 20.0518 11.474 20.7889 11.1055L41.6584 0.670722Z" fill="white" fill-opacity="0.16"/>
<path d="M41.6584 0.670722C42.5029 0.248431 43.4971 0.248431 44.3416 0.670722L65.2111 11.1055C65.9482 11.474 65.9482 12.5258 65.2111 12.8943L44.3416 23.3291C43.4971 23.7514 42.5029 23.7514 41.6584 23.3291L20.7889 12.8943C20.0518 12.5258 20.0518 11.474 20.7889 11.1055L41.6584 0.670722Z" fill="url(#paint8_linear_459_18881)" fill-opacity="0.32"/>
<path d="M44.118 1.11793L64.9875 11.5527C65.3561 11.7369 65.3561 12.2629 64.9875 12.4471L44.118 22.8819C43.4142 23.2338 42.5858 23.2338 41.882 22.8819L21.0125 12.4471C20.6439 12.2629 20.6439 11.7369 21.0125 11.5527L41.882 1.11793C42.5858 0.766028 43.4142 0.766028 44.118 1.11793Z" stroke="url(#paint9_linear_459_18881)" stroke-opacity="0.2"/>
</g>
<g filter="url(#filter4_d_459_18881)">
<path d="M47.6584 -7.32928C48.5029 -7.75157 49.4971 -7.75157 50.3416 -7.32928L71.2111 3.10547C71.9482 3.474 71.9482 4.5258 71.2111 4.89433L50.3416 15.3291C49.4971 15.7514 48.5029 15.7514 47.6584 15.3291L26.7889 4.89433C26.0518 4.5258 26.0518 3.474 26.7889 3.10547L47.6584 -7.32928Z" fill="white" fill-opacity="0.16"/>
<path d="M47.6584 -7.32928C48.5029 -7.75157 49.4971 -7.75157 50.3416 -7.32928L71.2111 3.10547C71.9482 3.474 71.9482 4.5258 71.2111 4.89433L50.3416 15.3291C49.4971 15.7514 48.5029 15.7514 47.6584 15.3291L26.7889 4.89433C26.0518 4.5258 26.0518 3.474 26.7889 3.10547L47.6584 -7.32928Z" fill="url(#paint10_linear_459_18881)" fill-opacity="0.32"/>
<path d="M50.118 -6.88206L70.9875 3.5527C71.3561 3.73696 71.3561 4.26286 70.9875 4.44712L50.118 14.8819C49.4142 15.2338 48.5858 15.2338 47.882 14.8819L27.0125 4.44712C26.6439 4.26286 26.6439 3.73696 27.0125 3.5527L47.882 -6.88206C48.5858 -7.23397 49.4142 -7.23397 50.118 -6.88206Z" stroke="url(#paint11_linear_459_18881)" stroke-opacity="0.2"/>
</g>
<g filter="url(#filter5_d_459_18881)">
<path d="M53.6584 -15.3293C54.5029 -15.7516 55.4971 -15.7516 56.3416 -15.3293L77.2111 -4.8945C77.9482 -4.52597 77.9482 -3.47417 77.2111 -3.10564L56.3416 7.32911C55.4971 7.7514 54.5029 7.7514 53.6584 7.32911L32.7889 -3.10564C32.0518 -3.47417 32.0518 -4.52597 32.7889 -4.8945L53.6584 -15.3293Z" fill="white" fill-opacity="0.16"/>
<path d="M53.6584 -15.3293C54.5029 -15.7516 55.4971 -15.7516 56.3416 -15.3293L77.2111 -4.8945C77.9482 -4.52597 77.9482 -3.47417 77.2111 -3.10564L56.3416 7.32911C55.4971 7.7514 54.5029 7.7514 53.6584 7.32911L32.7889 -3.10564C32.0518 -3.47417 32.0518 -4.52597 32.7889 -4.8945L53.6584 -15.3293Z" fill="url(#paint12_linear_459_18881)" fill-opacity="0.32"/>
<path d="M56.118 -14.8821L76.9875 -4.44728C77.3561 -4.26302 77.3561 -3.73712 76.9875 -3.55286L56.118 6.8819C55.4142 7.23381 54.5858 7.23381 53.882 6.8819L33.0125 -3.55286C32.6439 -3.73712 32.6439 -4.26302 33.0125 -4.44728L53.882 -14.8821C54.5858 -15.234 55.4142 -15.234 56.118 -14.8821Z" stroke="url(#paint13_linear_459_18881)" stroke-opacity="0.2"/>
</g>
</g>
<path d="M39.5 20C39.5 9.23045 30.7696 0.5 20 0.5C9.23045 0.5 0.5 9.23045 0.5 20C0.5 30.7696 9.23045 39.5 20 39.5C30.7696 39.5 39.5 30.7696 39.5 20Z" stroke="white" stroke-opacity="0.24"/>
</g>
<defs>
<filter id="filter0_d_459_18881" x="2.23608" y="24.354" width="49.5278" height="28.2917" filterUnits="userSpaceOnUse" color-interpolation-filters="sRGB">
<feFlood flood-opacity="0" result="BackgroundImageFix"/>
<feColorMatrix in="SourceAlpha" type="matrix" values="0 0 0 0 0 0 0 0 0 0 0 0 0 0 0 0 0 0 127 0" result="hardAlpha"/>
<feOffset dx="2" dy="3"/>
<feGaussianBlur stdDeviation="1"/>
<feComposite in2="hardAlpha" operator="out"/>
<feColorMatrix type="matrix" values="0 0 0 0 0.0487083 0 0 0 0 0.00340278 0 0 0 0 0.229931 0 0 0 0.1 0"/>
<feBlend mode="normal" in2="BackgroundImageFix" result="effect1_dropShadow_459_18881"/>
<feBlend mode="normal" in="SourceGraphic" in2="effect1_dropShadow_459_18881" result="shape"/>
</filter>
<filter id="filter1_d_459_18881" x="8.23608" y="16.354" width="49.5278" height="28.2917" filterUnits="userSpaceOnUse" color-interpolation-filters="sRGB">
<feFlood flood-opacity="0" result="BackgroundImageFix"/>
<feColorMatrix in="SourceAlpha" type="matrix" values="0 0 0 0 0 0 0 0 0 0 0 0 0 0 0 0 0 0 127 0" result="hardAlpha"/>
<feOffset dx="2" dy="3"/>
<feGaussianBlur stdDeviation="1"/>
<feComposite in2="hardAlpha" operator="out"/>
<feColorMatrix type="matrix" values="0 0 0 0 0.0487083 0 0 0 0 0.00340278 0 0 0 0 0.229931 0 0 0 0.1 0"/>
<feBlend mode="normal" in2="BackgroundImageFix" result="effect1_dropShadow_459_18881"/>
<feBlend mode="normal" in="SourceGraphic" in2="effect1_dropShadow_459_18881" result="shape"/>
</filter>
<filter id="filter2_d_459_18881" x="14.2361" y="8.354" width="49.5278" height="28.2917" filterUnits="userSpaceOnUse" color-interpolation-filters="sRGB">
<feFlood flood-opacity="0" result="BackgroundImageFix"/>
<feColorMatrix in="SourceAlpha" type="matrix" values="0 0 0 0 0 0 0 0 0 0 0 0 0 0 0 0 0 0 127 0" result="hardAlpha"/>
<feOffset dx="2" dy="3"/>
<feGaussianBlur stdDeviation="1"/>
<feComposite in2="hardAlpha" operator="out"/>
<feColorMatrix type="matrix" values="0 0 0 0 0.0487083 0 0 0 0 0.00340278 0 0 0 0 0.229931 0 0 0 0.1 0"/>
<feBlend mode="normal" in2="BackgroundImageFix" result="effect1_dropShadow_459_18881"/>
<feBlend mode="normal" in="SourceGraphic" in2="effect1_dropShadow_459_18881" result="shape"/>
</filter>
<filter id="filter3_d_459_18881" x="20.2361" y="0.354004" width="49.5278" height="28.2917" filterUnits="userSpaceOnUse" color-interpolation-filters="sRGB">
<feFlood flood-opacity="0" result="BackgroundImageFix"/>
<feColorMatrix in="SourceAlpha" type="matrix" values="0 0 0 0 0 0 0 0 0 0 0 0 0 0 0 0 0 0 127 0" result="hardAlpha"/>
<feOffset dx="2" dy="3"/>
<feGaussianBlur stdDeviation="1"/>
<feComposite in2="hardAlpha" operator="out"/>
<feColorMatrix type="matrix" values="0 0 0 0 0.0487083 0 0 0 0 0.00340278 0 0 0 0 0.229931 0 0 0 0.1 0"/>
<feBlend mode="normal" in2="BackgroundImageFix" result="effect1_dropShadow_459_18881"/>
<feBlend mode="normal" in="SourceGraphic" in2="effect1_dropShadow_459_18881" result="shape"/>
</filter>
<filter id="filter4_d_459_18881" x="26.2361" y="-7.646" width="49.5278" height="28.2917" filterUnits="userSpaceOnUse" color-interpolation-filters="sRGB">
<feFlood flood-opacity="0" result="BackgroundImageFix"/>
<feColorMatrix in="SourceAlpha" type="matrix" values="0 0 0 0 0 0 0 0 0 0 0 0 0 0 0 0 0 0 127 0" result="hardAlpha"/>
<feOffset dx="2" dy="3"/>
<feGaussianBlur stdDeviation="1"/>
<feComposite in2="hardAlpha" operator="out"/>
<feColorMatrix type="matrix" values="0 0 0 0 0.0487083 0 0 0 0 0.00340278 0 0 0 0 0.229931 0 0 0 0.1 0"/>
<feBlend mode="normal" in2="BackgroundImageFix" result="effect1_dropShadow_459_18881"/>
<feBlend mode="normal" in="SourceGraphic" in2="effect1_dropShadow_459_18881" result="shape"/>
</filter>
<filter id="filter5_d_459_18881" x="32.2361" y="-15.646" width="49.5278" height="28.2917" filterUnits="userSpaceOnUse" color-interpolation-filters="sRGB">
<feFlood flood-opacity="0" result="BackgroundImageFix"/>
<feColorMatrix in="SourceAlpha" type="matrix" values="0 0 0 0 0 0 0 0 0 0 0 0 0 0 0 0 0 0 127 0" result="hardAlpha"/>
<feOffset dx="2" dy="3"/>
<feGaussianBlur stdDeviation="1"/>
<feComposite in2="hardAlpha" operator="out"/>
<feColorMatrix type="matrix" values="0 0 0 0 0.0487083 0 0 0 0 0.00340278 0 0 0 0 0.229931 0 0 0 0.1 0"/>
<feBlend mode="normal" in2="BackgroundImageFix" result="effect1_dropShadow_459_18881"/>
<feBlend mode="normal" in="SourceGraphic" in2="effect1_dropShadow_459_18881" result="shape"/>
</filter>
<linearGradient id="paint0_linear_459_18881" x1="20" y1="0" x2="20" y2="40" gradientUnits="userSpaceOnUse">
<stop stop-color="#193A3E"/>
<stop offset="0.822917" stop-color="#004952"/>
</linearGradient>
<radialGradient id="paint1_radial_459_18881" cx="0" cy="0" r="1" gradientUnits="userSpaceOnUse" gradientTransform="translate(20 40) rotate(90) scale(27.5)">
<stop stop-color="white"/>
<stop offset="1" stop-color="white" stop-opacity="0"/>
</radialGradient>
<linearGradient id="paint2_linear_459_18881" x1="25" y1="23.9999" x2="25" y2="47.9999" gradientUnits="userSpaceOnUse">
<stop offset="0.203125" stop-color="white" stop-opacity="0"/>
<stop offset="1" stop-color="white"/>
</linearGradient>
<linearGradient id="paint3_linear_459_18881" x1="25" y1="23.9999" x2="25" y2="47.9999" gradientUnits="userSpaceOnUse">
<stop offset="0.526042" stop-color="white" stop-opacity="0"/>
<stop offset="1" stop-color="white"/>
</linearGradient>
<linearGradient id="paint4_linear_459_18881" x1="31" y1="15.9999" x2="31" y2="39.9999" gradientUnits="userSpaceOnUse">
<stop offset="0.203125" stop-color="white" stop-opacity="0"/>
<stop offset="1" stop-color="white"/>
</linearGradient>
<linearGradient id="paint5_linear_459_18881" x1="31" y1="15.9999" x2="31" y2="39.9999" gradientUnits="userSpaceOnUse">
<stop offset="0.526042" stop-color="white" stop-opacity="0"/>
<stop offset="1" stop-color="white"/>
</linearGradient>
<linearGradient id="paint6_linear_459_18881" x1="37" y1="7.9999" x2="37" y2="31.9999" gradientUnits="userSpaceOnUse">
<stop offset="0.203125" stop-color="white" stop-opacity="0"/>
<stop offset="1" stop-color="white"/>
</linearGradient>
<linearGradient id="paint7_linear_459_18881" x1="37" y1="7.99991" x2="37" y2="31.9999" gradientUnits="userSpaceOnUse">
<stop offset="0.526042" stop-color="white" stop-opacity="0"/>
<stop offset="1" stop-color="white"/>
</linearGradient>
<linearGradient id="paint8_linear_459_18881" x1="43" y1="-9.78483e-05" x2="43" y2="23.9999" gradientUnits="userSpaceOnUse">
<stop offset="0.203125" stop-color="white" stop-opacity="0"/>
<stop offset="1" stop-color="white"/>
</linearGradient>
<linearGradient id="paint9_linear_459_18881" x1="43" y1="-9.74007e-05" x2="43" y2="23.9999" gradientUnits="userSpaceOnUse">
<stop offset="0.526042" stop-color="white" stop-opacity="0"/>
<stop offset="1" stop-color="white"/>
</linearGradient>
<linearGradient id="paint10_linear_459_18881" x1="49" y1="-8.0001" x2="49" y2="15.9999" gradientUnits="userSpaceOnUse">
<stop offset="0.203125" stop-color="white" stop-opacity="0"/>
<stop offset="1" stop-color="white"/>
</linearGradient>
<linearGradient id="paint11_linear_459_18881" x1="49" y1="-8.00009" x2="49" y2="15.9999" gradientUnits="userSpaceOnUse">
<stop offset="0.526042" stop-color="white" stop-opacity="0"/>
<stop offset="1" stop-color="white"/>
</linearGradient>
<linearGradient id="paint12_linear_459_18881" x1="55" y1="-16.0001" x2="55" y2="7.99993" gradientUnits="userSpaceOnUse">
<stop offset="0.203125" stop-color="white" stop-opacity="0"/>
<stop offset="1" stop-color="white"/>
</linearGradient>
<linearGradient id="paint13_linear_459_18881" x1="55" y1="-16.0001" x2="55" y2="7.99993" gradientUnits="userSpaceOnUse">
<stop offset="0.526042" stop-color="white" stop-opacity="0"/>
<stop offset="1" stop-color="white"/>
</linearGradient>
<clipPath id="clip0_459_18881">
<rect width="40" height="40" fill="white"/>
</clipPath>
</defs>
</svg>
