<svg width="18" height="18" viewBox="0 0 18 18" fill="none" xmlns="http://www.w3.org/2000/svg">
<path d="M16.4775 9C16.4775 11.4825 14.46 13.5 11.9775 13.5C10.8225 13.5 9.77254 13.065 8.97754 12.345C9.90004 11.5275 10.4775 10.3275 10.4775 9C10.4775 7.6725 9.90004 6.4725 8.97754 5.655C9.77254 4.935 10.8225 4.5 11.9775 4.5C14.46 4.5 16.4775 6.5175 16.4775 9Z" stroke="#CDFBFF" stroke-opacity="0.6" stroke-width="1.5" stroke-linecap="round" stroke-linejoin="round"/>
<path d="M10.4775 9C10.4775 10.3275 9.90004 11.5275 8.97754 12.345C8.18254 13.065 7.13254 13.5 5.97754 13.5C3.49504 13.5 1.47754 11.4825 1.47754 9C1.47754 6.5175 3.49504 4.5 5.97754 4.5C7.13254 4.5 8.18254 4.935 8.97754 5.655C9.90004 6.4725 10.4775 7.6725 10.4775 9Z" stroke="#CDFBFF" stroke-opacity="0.6" stroke-width="1.5" stroke-linecap="round" stroke-linejoin="round"/>
</svg>
