<svg width="28" height="28" viewBox="0 0 28 28" fill="none" xmlns="http://www.w3.org/2000/svg">
<path opacity="0.4" d="M17.5003 4.6665H10.5003C7.28033 4.6665 4.66699 7.27984 4.66699 10.4998V17.4998C4.66699 20.7198 7.28033 23.3332 10.5003 23.3332H17.5003C20.7203 23.3332 23.3337 20.7198 23.3337 17.4998V10.4998C23.3337 7.27984 20.7203 4.6665 17.5003 4.6665ZM20.137 16.6365C20.137 18.5732 18.5737 20.1365 16.637 20.1365H11.3637C9.42699 20.1365 7.86366 18.5732 7.86366 16.6365V11.3632C7.86366 9.4265 9.42699 7.86317 11.3637 7.86317H16.6253C18.562 7.86317 20.1253 9.4265 20.1253 11.3632V16.6365H20.137Z" fill="#CDFBFF"/>
<path d="M10.5703 3.2085V4.66683H10.5003C9.91698 4.66683 9.35698 4.7485 8.82031 4.91183V3.2085C8.82031 2.73016 9.20531 2.3335 9.69531 2.3335C10.1736 2.3335 10.5703 2.73016 10.5703 3.2085Z" fill="#CDFBFF"/>
<path d="M14.875 3.2085V4.66683H13.125V3.2085C13.125 2.73016 13.5217 2.3335 14 2.3335C14.4783 2.3335 14.875 2.73016 14.875 3.2085Z" fill="#CDFBFF"/>
<path d="M19.1914 3.2085V4.91183C18.6547 4.7485 18.0831 4.66683 17.4997 4.66683H17.4414V3.2085C17.4414 2.73016 17.8381 2.3335 18.3164 2.3335C18.7947 2.3335 19.1914 2.73016 19.1914 3.2085Z" fill="#CDFBFF"/>
<path d="M25.6662 9.68311C25.6662 10.1731 25.2812 10.5581 24.7912 10.5581H23.3329V10.4998C23.3329 9.91644 23.2512 9.34477 23.0879 8.80811H24.7912C25.2812 8.80811 25.6662 9.20477 25.6662 9.68311Z" fill="#CDFBFF"/>
<path d="M25.6663 14C25.6663 14.4783 25.2813 14.875 24.7913 14.875H23.333V13.125H24.7913C25.2813 13.125 25.6663 13.51 25.6663 14Z" fill="#CDFBFF"/>
<path d="M25.6662 18.3169C25.6662 18.7952 25.2812 19.1919 24.7912 19.1919H23.0879C23.2512 18.6552 23.3329 18.0836 23.3329 17.5002V17.4419H24.7912C25.2812 17.4419 25.6662 17.8269 25.6662 18.3169Z" fill="#CDFBFF"/>
<path d="M19.1914 23.0884V24.7917C19.1914 25.27 18.7947 25.6667 18.3164 25.6667C17.8381 25.6667 17.4414 25.27 17.4414 24.7917V23.3334H17.4997C18.0831 23.3334 18.6547 23.2517 19.1914 23.0884Z" fill="#CDFBFF"/>
<path d="M14.8867 23.3335V24.7918C14.8867 25.2702 14.4901 25.6668 14.0117 25.6668C13.5217 25.6668 13.1367 25.2702 13.1367 24.7918V23.3335H14.8867Z" fill="#CDFBFF"/>
<path d="M10.5703 23.3334V24.7917C10.5703 25.27 10.1736 25.6667 9.69531 25.6667C9.20531 25.6667 8.82031 25.27 8.82031 24.7917V23.0884C9.35698 23.2517 9.91698 23.3334 10.5003 23.3334H10.5703Z" fill="#CDFBFF"/>
<path d="M4.91134 8.80811C4.74801 9.34477 4.66634 9.91644 4.66634 10.4998V10.5581H3.20801C2.72967 10.5581 2.33301 10.1731 2.33301 9.68311C2.33301 9.20477 2.72967 8.80811 3.20801 8.80811H4.91134Z" fill="#CDFBFF"/>
<path d="M4.66634 13.125V14.875H3.20801C2.72967 14.875 2.33301 14.4783 2.33301 14C2.33301 13.51 2.72967 13.125 3.20801 13.125H4.66634Z" fill="#CDFBFF"/>
<path d="M4.91134 19.1919H3.20801C2.72967 19.1919 2.33301 18.7952 2.33301 18.3169C2.33301 17.8269 2.72967 17.4419 3.20801 17.4419H4.66634V17.5002C4.66634 18.0836 4.74801 18.6552 4.91134 19.1919Z" fill="#CDFBFF"/>
<path d="M20.1366 11.3633V16.6249C20.1366 18.5616 18.5733 20.1249 16.6366 20.1249H11.3633C9.42661 20.1249 7.86328 18.5616 7.86328 16.6249V11.3633C7.86328 9.42661 9.42661 7.86328 11.3633 7.86328H16.6249C18.5616 7.86328 20.1366 9.43828 20.1366 11.3633Z" fill="#CDFBFF"/>
</svg>
