<svg width="28" height="28" viewBox="0 0 28 28" fill="none" xmlns="http://www.w3.org/2000/svg">
<g opacity="0.6">
<path opacity="0.4" d="M22.4583 8.645V19.355C22.4583 21.3617 21.735 22.8667 20.44 23.59C19.915 23.8817 19.3317 24.0217 18.725 24.0217C17.7917 24.0217 16.7883 23.7067 15.7617 23.065L12.355 20.93C12.1217 20.79 11.8533 20.7083 11.585 20.7083H10.5V7.29167H11.585C11.8533 7.29167 12.1217 7.21 12.355 7.07L15.7617 4.935C17.465 3.87334 19.1333 3.68667 20.44 4.41C21.735 5.13334 22.4583 6.63834 22.4583 8.645Z" fill="#CDFBFF"/>
<path d="M10.5001 7.2915V20.7082H9.91675C7.09341 20.7082 5.54175 19.1565 5.54175 16.3332V11.6665C5.54175 8.84317 7.09341 7.2915 9.91675 7.2915H10.5001Z" fill="#CDFBFF"/>
</g>
</svg>
