<svg width="28" height="28" viewBox="0 0 28 28" fill="none" xmlns="http://www.w3.org/2000/svg">
<g opacity="0.6">
<path opacity="0.4" d="M13.9999 25.6668C20.4432 25.6668 25.6666 20.4435 25.6666 14.0002C25.6666 7.55684 20.4432 2.3335 13.9999 2.3335C7.5566 2.3335 2.33325 7.55684 2.33325 14.0002C2.33325 20.4435 7.5566 25.6668 13.9999 25.6668Z" fill="#CDFBFF"/>
<path d="M13.9999 15.1668C13.3466 15.1668 12.8333 14.6418 12.8333 14.0002C12.8333 13.3585 13.3583 12.8335 13.9999 12.8335C14.6416 12.8335 15.1666 13.3585 15.1666 14.0002C15.1666 14.6418 14.6533 15.1668 13.9999 15.1668Z" fill="#CDFBFF"/>
<path d="M18.6667 15.1668C18.0133 15.1668 17.5 14.6418 17.5 14.0002C17.5 13.3585 18.025 12.8335 18.6667 12.8335C19.3083 12.8335 19.8333 13.3585 19.8333 14.0002C19.8333 14.6418 19.32 15.1668 18.6667 15.1668Z" fill="#CDFBFF"/>
<path d="M9.33341 15.1668C8.68008 15.1668 8.16675 14.6418 8.16675 14.0002C8.16675 13.3585 8.69175 12.8335 9.33341 12.8335C9.97508 12.8335 10.5001 13.3585 10.5001 14.0002C10.5001 14.6418 9.98675 15.1668 9.33341 15.1668Z" fill="#CDFBFF"/>
</g>
</svg>
