<svg width="24" height="25" viewBox="0 0 24 25" fill="none" xmlns="http://www.w3.org/2000/svg">
<g clip-path="url(#clip0_38_678)">
<path d="M7.80988e-05 14.2651L0.0600781 5.17568C0.0705781 3.53023 1.20983 2.11962 2.78258 1.80523L11.4728 0.0650749C13.5608 -0.353107 15.4988 1.29765 15.4853 3.48174L15.4253 12.5727C15.4141 14.2173 14.2748 15.6272 12.7021 15.9423L4.01183 17.6825C1.92383 18.1007 -0.0141719 16.4499 7.80988e-05 14.2651Z" fill="#2BCDB9" fill-opacity="0.2"/>
<path d="M4.25765 17.8918L4.31765 8.80087C4.3274 7.15693 5.4674 5.74708 7.04015 5.43193L15.7304 3.69254C17.8184 3.27436 19.7564 4.92436 19.7421 7.1092L19.6821 16.2001C19.6716 17.8448 18.5324 19.2547 16.9596 19.5698L8.2694 21.31C6.1814 21.7274 4.2434 20.0774 4.25765 17.8933V17.8918Z" fill="#2BCDB9" fill-opacity="0.5"/>
<path d="M8.51522 21.5183L8.57522 12.4274C8.58572 10.7819 9.72497 9.37282 11.2977 9.05767L19.988 7.31752C22.076 6.89933 24.014 8.55009 23.9997 10.7342L23.9397 19.8251C23.9292 21.4705 22.79 22.8804 21.2172 23.1948L12.527 24.9349C10.439 25.3531 8.50097 23.7024 8.51447 21.5183H8.51522Z" fill="#2BCDB9" fill-opacity="0.8"/>
</g>
<defs>
<clipPath id="clip0_38_678">
<rect width="24" height="25" fill="white"/>
</clipPath>
</defs>
</svg>
