<svg width="60" height="19" viewBox="0 0 60 19" fill="none" xmlns="http://www.w3.org/2000/svg">
<circle cx="6.61831" cy="0.567289" r="0.567289" fill="white" fill-opacity="0.15"/>
<circle cx="12.2912" cy="0.567289" r="0.567289" fill="white" fill-opacity="0.6"/>
<circle cx="17.964" cy="0.567289" r="0.567289" fill="white" fill-opacity="0.15"/>
<circle cx="24.0153" cy="0.567289" r="0.567289" fill="white" fill-opacity="0.15"/>
<circle cx="29.6884" cy="0.567289" r="0.567289" fill="white" fill-opacity="0.6"/>
<circle cx="35.3612" cy="0.567289" r="0.567289" fill="white" fill-opacity="0.15"/>
<circle cx="41.4115" cy="0.567289" r="0.567289" fill="white" fill-opacity="0.15"/>
<circle cx="47.0854" cy="0.567289" r="0.567289" fill="white" fill-opacity="0.15"/>
<circle cx="53.1359" cy="0.567289" r="0.567289" fill="white" fill-opacity="0.15"/>
<circle cx="58.8087" cy="0.567289" r="0.567289" fill="white" fill-opacity="0.6"/>
<circle cx="6.61831" cy="17.9643" r="0.567289" fill="white" fill-opacity="0.15"/>
<circle cx="12.2912" cy="17.9643" r="0.567289" fill="white" fill-opacity="0.6"/>
<circle cx="17.964" cy="17.9643" r="0.567289" fill="white" fill-opacity="0.15"/>
<circle cx="24.0153" cy="17.9643" r="0.567289" fill="white" fill-opacity="0.15"/>
<circle cx="29.6884" cy="17.9643" r="0.567289" fill="white" fill-opacity="0.15"/>
<circle cx="35.3612" cy="17.9643" r="0.567289" fill="white" fill-opacity="0.15"/>
<circle cx="41.4115" cy="17.9643" r="0.567289" fill="white" fill-opacity="0.15"/>
<circle cx="47.0854" cy="17.9643" r="0.567289" fill="white" fill-opacity="0.15"/>
<circle cx="53.1359" cy="17.9643" r="0.567289" fill="white" fill-opacity="0.15"/>
<circle cx="58.8087" cy="17.9643" r="0.567289" fill="white" fill-opacity="0.15"/>
<circle cx="0.567289" cy="6.61856" r="0.567289" fill="white" fill-opacity="0.15"/>
<circle cx="6.61831" cy="6.61856" r="0.567289" fill="white" fill-opacity="0.15"/>
<circle cx="12.2912" cy="6.61856" r="0.567289" fill="white" fill-opacity="0.15"/>
<circle cx="17.964" cy="6.61856" r="0.567289" fill="white" fill-opacity="0.15"/>
<circle cx="24.0153" cy="6.61856" r="0.567289" fill="white" fill-opacity="0.6"/>
<circle cx="29.6884" cy="6.61856" r="0.567289" fill="white" fill-opacity="0.6"/>
<circle cx="35.3612" cy="6.61856" r="0.567289" fill="white" fill-opacity="0.6"/>
<circle cx="41.4115" cy="6.61856" r="0.567289" fill="white" fill-opacity="0.6"/>
<circle cx="47.0854" cy="6.61856" r="0.567289" fill="white" fill-opacity="0.6"/>
<circle cx="53.1359" cy="6.61856" r="0.567289" fill="white" fill-opacity="0.15"/>
<circle cx="0.567289" cy="12.2914" r="0.567289" fill="white" fill-opacity="0.15"/>
<circle cx="6.61831" cy="12.2914" r="0.567289" fill="white" fill-opacity="0.6"/>
<circle cx="12.2912" cy="12.2914" r="0.567289" fill="white" fill-opacity="0.6"/>
<circle cx="17.964" cy="12.2914" r="0.567289" fill="white" fill-opacity="0.15"/>
<circle cx="24.0153" cy="12.2914" r="0.567289" fill="white" fill-opacity="0.6"/>
<circle cx="29.6884" cy="12.2914" r="0.567289" fill="white" fill-opacity="0.15"/>
<circle cx="35.3612" cy="12.2914" r="0.567289" fill="white" fill-opacity="0.15"/>
<circle cx="41.4115" cy="12.2914" r="0.567289" fill="white" fill-opacity="0.15"/>
<circle cx="47.0854" cy="12.2914" r="0.567289" fill="white" fill-opacity="0.15"/>
<circle cx="53.1359" cy="12.2914" r="0.567289" fill="white" fill-opacity="0.15"/>
</svg>
