<svg width="18" height="18" viewBox="0 0 18 18" fill="none" xmlns="http://www.w3.org/2000/svg">
<path opacity="0.4" d="M9 18C13.9706 18 18 13.9706 18 9C18 4.02944 13.9706 0 9 0C4.02944 0 0 4.02944 0 9C0 13.9706 4.02944 18 9 18Z" fill="#CDFBFF" fill-opacity="0.6"/>
<path d="M11.0338 9.08989L9.67485 8.61289V5.56189H9.99885C10.7278 5.56189 11.3218 6.20089 11.3218 6.98389C11.3218 7.35289 11.6278 7.65889 11.9968 7.65889C12.3658 7.65889 12.6718 7.35289 12.6718 6.98389C12.6718 5.45389 11.4748 4.21189 9.99885 4.21189H9.67485V3.68989C9.67485 3.32089 9.36885 3.01489 8.99985 3.01489C8.63085 3.01489 8.32485 3.32089 8.32485 3.68989V4.21189H7.73985C6.40785 4.21189 5.31885 5.33689 5.31885 6.71389C5.31885 8.32489 6.25485 8.83789 6.96585 9.08989L8.32485 9.56689V12.6089H8.00085C7.27185 12.6089 6.67785 11.9699 6.67785 11.1869C6.67785 10.8179 6.37185 10.5119 6.00285 10.5119C5.63385 10.5119 5.32785 10.8179 5.32785 11.1869C5.32785 12.7169 6.52485 13.9589 8.00085 13.9589H8.32485V14.4899C8.32485 14.8589 8.63085 15.1649 8.99985 15.1649C9.36885 15.1649 9.67485 14.8589 9.67485 14.4899V13.9679H10.2598C11.5918 13.9679 12.6808 12.8429 12.6808 11.4659C12.6718 9.84589 11.7358 9.33289 11.0338 9.08989ZM7.41585 7.82089C6.95685 7.65889 6.67785 7.50589 6.67785 6.72289C6.67785 6.08389 7.15485 5.57089 7.74885 5.57089H8.33385V8.14489L7.41585 7.82089ZM10.2598 12.6179H9.67485V10.0439L10.5838 10.3589C11.0428 10.5209 11.3218 10.6739 11.3218 11.4569C11.3218 12.0959 10.8448 12.6179 10.2598 12.6179Z" fill="#CDFBFF" fill-opacity="0.6"/>
</svg>
