<svg width="60" height="19" viewBox="0 0 60 19" fill="none" xmlns="http://www.w3.org/2000/svg">
<circle cx="0.567289" cy="0.567289" r="0.567289" transform="matrix(-1 0 0 1 53.949 0)" fill="white" fill-opacity="0.15"/>
<circle cx="0.567289" cy="0.567289" r="0.567289" transform="matrix(-1 0 0 1 48.2761 0)" fill="white" fill-opacity="0.6"/>
<circle cx="0.567289" cy="0.567289" r="0.567289" transform="matrix(-1 0 0 1 42.6033 0)" fill="white" fill-opacity="0.15"/>
<circle cx="0.567289" cy="0.567289" r="0.567289" transform="matrix(-1 0 0 1 36.552 0)" fill="white" fill-opacity="0.15"/>
<circle cx="0.567289" cy="0.567289" r="0.567289" transform="matrix(-1 0 0 1 30.8789 0)" fill="white" fill-opacity="0.6"/>
<circle cx="0.567289" cy="0.567289" r="0.567289" transform="matrix(-1 0 0 1 25.2061 0)" fill="white" fill-opacity="0.15"/>
<circle cx="0.567289" cy="0.567289" r="0.567289" transform="matrix(-1 0 0 1 19.1558 0)" fill="white" fill-opacity="0.15"/>
<circle cx="0.567289" cy="0.567289" r="0.567289" transform="matrix(-1 0 0 1 13.4819 0)" fill="white" fill-opacity="0.15"/>
<circle cx="0.567289" cy="0.567289" r="0.567289" transform="matrix(-1 0 0 1 7.4314 0)" fill="white" fill-opacity="0.15"/>
<circle cx="0.567289" cy="0.567289" r="0.567289" transform="matrix(-1 0 0 1 1.75854 0)" fill="white" fill-opacity="0.6"/>
<circle cx="0.567289" cy="0.567289" r="0.567289" transform="matrix(-1 0 0 1 53.949 17.397)" fill="white" fill-opacity="0.15"/>
<circle cx="0.567289" cy="0.567289" r="0.567289" transform="matrix(-1 0 0 1 48.2761 17.397)" fill="white" fill-opacity="0.6"/>
<circle cx="0.567289" cy="0.567289" r="0.567289" transform="matrix(-1 0 0 1 42.6033 17.397)" fill="white" fill-opacity="0.15"/>
<circle cx="0.567289" cy="0.567289" r="0.567289" transform="matrix(-1 0 0 1 36.552 17.397)" fill="white" fill-opacity="0.15"/>
<circle cx="0.567289" cy="0.567289" r="0.567289" transform="matrix(-1 0 0 1 30.8789 17.397)" fill="white" fill-opacity="0.15"/>
<circle cx="0.567289" cy="0.567289" r="0.567289" transform="matrix(-1 0 0 1 25.2061 17.397)" fill="white" fill-opacity="0.15"/>
<circle cx="0.567289" cy="0.567289" r="0.567289" transform="matrix(-1 0 0 1 19.1558 17.397)" fill="white" fill-opacity="0.15"/>
<circle cx="0.567289" cy="0.567289" r="0.567289" transform="matrix(-1 0 0 1 13.4819 17.397)" fill="white" fill-opacity="0.15"/>
<circle cx="0.567289" cy="0.567289" r="0.567289" transform="matrix(-1 0 0 1 7.4314 17.397)" fill="white" fill-opacity="0.15"/>
<circle cx="0.567289" cy="0.567289" r="0.567289" transform="matrix(-1 0 0 1 1.75854 17.397)" fill="white" fill-opacity="0.15"/>
<circle cx="0.567289" cy="0.567289" r="0.567289" transform="matrix(-1 0 0 1 60 6.05127)" fill="white" fill-opacity="0.15"/>
<circle cx="0.567289" cy="0.567289" r="0.567289" transform="matrix(-1 0 0 1 53.949 6.05127)" fill="white" fill-opacity="0.15"/>
<circle cx="0.567289" cy="0.567289" r="0.567289" transform="matrix(-1 0 0 1 48.2761 6.05127)" fill="white" fill-opacity="0.15"/>
<circle cx="0.567289" cy="0.567289" r="0.567289" transform="matrix(-1 0 0 1 42.6033 6.05127)" fill="white" fill-opacity="0.15"/>
<circle cx="0.567289" cy="0.567289" r="0.567289" transform="matrix(-1 0 0 1 36.552 6.05127)" fill="white" fill-opacity="0.6"/>
<circle cx="0.567289" cy="0.567289" r="0.567289" transform="matrix(-1 0 0 1 30.8789 6.05127)" fill="white" fill-opacity="0.6"/>
<circle cx="0.567289" cy="0.567289" r="0.567289" transform="matrix(-1 0 0 1 25.2061 6.05127)" fill="white" fill-opacity="0.6"/>
<circle cx="0.567289" cy="0.567289" r="0.567289" transform="matrix(-1 0 0 1 19.1558 6.05127)" fill="white" fill-opacity="0.6"/>
<circle cx="0.567289" cy="0.567289" r="0.567289" transform="matrix(-1 0 0 1 13.4819 6.05127)" fill="white" fill-opacity="0.6"/>
<circle cx="0.567289" cy="0.567289" r="0.567289" transform="matrix(-1 0 0 1 7.4314 6.05127)" fill="white" fill-opacity="0.15"/>
<circle cx="0.567289" cy="0.567289" r="0.567289" transform="matrix(-1 0 0 1 60 11.7241)" fill="white" fill-opacity="0.15"/>
<circle cx="0.567289" cy="0.567289" r="0.567289" transform="matrix(-1 0 0 1 53.949 11.7241)" fill="white" fill-opacity="0.6"/>
<circle cx="0.567289" cy="0.567289" r="0.567289" transform="matrix(-1 0 0 1 48.2761 11.7241)" fill="white" fill-opacity="0.6"/>
<circle cx="0.567289" cy="0.567289" r="0.567289" transform="matrix(-1 0 0 1 42.6033 11.7241)" fill="white" fill-opacity="0.15"/>
<circle cx="0.567289" cy="0.567289" r="0.567289" transform="matrix(-1 0 0 1 36.552 11.7241)" fill="white" fill-opacity="0.6"/>
<circle cx="0.567289" cy="0.567289" r="0.567289" transform="matrix(-1 0 0 1 30.8789 11.7241)" fill="white" fill-opacity="0.15"/>
<circle cx="0.567289" cy="0.567289" r="0.567289" transform="matrix(-1 0 0 1 25.2061 11.7241)" fill="white" fill-opacity="0.15"/>
<circle cx="0.567289" cy="0.567289" r="0.567289" transform="matrix(-1 0 0 1 19.1558 11.7241)" fill="white" fill-opacity="0.15"/>
<circle cx="0.567289" cy="0.567289" r="0.567289" transform="matrix(-1 0 0 1 13.4819 11.7241)" fill="white" fill-opacity="0.15"/>
<circle cx="0.567289" cy="0.567289" r="0.567289" transform="matrix(-1 0 0 1 7.4314 11.7241)" fill="white" fill-opacity="0.15"/>
</svg>
