<svg width="192" height="97" viewBox="0 0 192 97" fill="none" xmlns="http://www.w3.org/2000/svg">
<path d="M8.76019 49.3634H-7.10774C-18.2918 49.3634 -14.76 69.9089 -23.5895 69.9089C-34.6264 69.9089 -29.1815 62.3395 -40.0713 62.3395C-50.8139 62.6098 -62.6093 73.153 -73.3519 73.153V96.8866H192V0.442871C180.816 0.442871 184.074 12.057 174.096 12.057C164.118 12.057 169.818 4.48755 157.71 4.48755C147.409 4.48755 152.265 16.923 141.228 16.923C130.191 16.923 133.56 21.1942 124.142 21.1942C113.729 21.1942 120.765 12.057 108.265 12.057C95.7644 12.057 102.357 21.1942 90.986 21.1942C79.0661 21.1942 86.3381 22.8704 75.3012 22.8704C63.2342 22.8704 71.3197 35.9817 58.9666 35.9817C45.1768 35.9817 53.6689 51.5261 42.3376 51.5261C31.0064 51.5261 36.4898 42.7401 25.8559 42.7401C14.6718 42.7401 19.7164 49.3634 8.76019 49.3634Z" fill="url(#paint0_linear_137_871)"/>
<defs>
<linearGradient id="paint0_linear_137_871" x1="109.591" y1="-23.9429" x2="109.591" y2="96.8866" gradientUnits="userSpaceOnUse">
<stop stop-color="#088DA0" stop-opacity="0.6"/>
<stop offset="1" stop-color="#088DA0" stop-opacity="0"/>
</linearGradient>
</defs>
</svg>
